<svg width="93" height="82" viewBox="0 0 93 82" fill="none" xmlns="http://www.w3.org/2000/svg">
<rect width="93" height="82" fill="white"/>
<path fill-rule="evenodd" clip-rule="evenodd" d="M29 18H32.5H60.5H64V21.5V33.5H57V25H50V33.5H43V25H36V33.5H29V21.5V18ZM29 33.5H16V63.5H78V33.5H64V48.5H57V33.5H50V48.5H43V33.5H36V48.5H29V33.5Z" fill="black"/>
<path d="M23.684 68.6H26.516V74.804H30.308V77H23.684V68.6Z" fill="black"/>
<path d="M38.0743 74.864V77H31.0903V68.6H37.9183V70.736H33.8743V71.72H37.4263V73.76H33.8743V74.864H38.0743Z" fill="black"/>
<path d="M50.2621 77L50.2381 73.172L48.4141 76.244H47.1661L45.3421 73.304V77H42.7621V68.6H45.0901L47.8261 73.076L50.4901 68.6H52.8181L52.8421 77H50.2621Z" fill="black"/>
<path d="M58.2313 77.192C56.9433 77.192 55.9393 76.844 55.2193 76.148C54.4993 75.452 54.1393 74.476 54.1393 73.22V68.6H56.9713V73.136C56.9713 73.752 57.0793 74.2 57.2953 74.48C57.5193 74.76 57.8393 74.9 58.2553 74.9C58.6713 74.9 58.9873 74.76 59.2033 74.48C59.4273 74.2 59.5393 73.752 59.5393 73.136V68.6H62.3233V73.22C62.3233 74.476 61.9633 75.452 61.2433 76.148C60.5233 76.844 59.5193 77.192 58.2313 77.192Z" fill="black"/>
<path d="M67.2215 74.888H66.4535V77H63.6215V68.6H67.6655C68.4415 68.6 69.1175 68.728 69.6935 68.984C70.2695 69.24 70.7135 69.608 71.0255 70.088C71.3375 70.568 71.4935 71.128 71.4935 71.768C71.4935 72.368 71.3575 72.892 71.0855 73.34C70.8135 73.788 70.4215 74.144 69.9095 74.408L71.6735 77H68.6495L67.2215 74.888ZM68.6375 71.768C68.6375 71.456 68.5415 71.216 68.3495 71.048C68.1575 70.872 67.8695 70.784 67.4855 70.784H66.4535V72.752H67.4855C67.8695 72.752 68.1575 72.668 68.3495 72.5C68.5415 72.324 68.6375 72.08 68.6375 71.768Z" fill="black"/>
</svg>
